<?xml version="1.0" encoding="UTF-8" standalone="no"?>
<svg
   xmlns:dc="http://purl.org/dc/elements/1.1/"
   xmlns:cc="http://creativecommons.org/ns#"
   xmlns:rdf="http://www.w3.org/1999/02/22-rdf-syntax-ns#"
   xmlns:svg="http://www.w3.org/2000/svg"
   xmlns="http://www.w3.org/2000/svg"
   xmlns:sodipodi="http://sodipodi.sourceforge.net/DTD/sodipodi-0.dtd"
   xmlns:inkscape="http://www.inkscape.org/namespaces/inkscape"
   version="1.1"
   x="0px"
   y="0px"
   viewBox="0 0 512 530"
   xml:space="preserve"
   id="svg2"
   inkscape:version="0.91 r13725"
   sodipodi:docname="reading.svg"
   width="512"
   height="530"><metadata
     id="metadata156"><rdf:RDF><cc:Work
         rdf:about=""><dc:format>image/svg+xml</dc:format><dc:type
           rdf:resource="http://purl.org/dc/dcmitype/StillImage" /><dc:title></dc:title></cc:Work></rdf:RDF></metadata><defs
     id="defs154" /><sodipodi:namedview
     pagecolor="#ffffff"
     bordercolor="#666666"
     borderopacity="1"
     objecttolerance="10"
     gridtolerance="10"
     guidetolerance="10"
     inkscape:pageopacity="0"
     inkscape:pageshadow="2"
     inkscape:window-width="1366"
     inkscape:window-height="704"
     id="namedview152"
     showgrid="false"
     inkscape:zoom="0.52149125"
     inkscape:cx="-74.591777"
     inkscape:cy="145.60951"
     inkscape:window-x="0"
     inkscape:window-y="27"
     inkscape:window-maximized="1"
     inkscape:current-layer="svg2" /><style
     type="text/css"
     id="style4">
	.st0{display:none;}
	.st1{display:inline;fill:none;stroke:#000000;stroke-width:0.1;stroke-miterlimit:10;}
</style><g
     class="st0"
     id="g6"
     style="display:none"
     transform="translate(0,-110)"><rect
       x="-98"
       y="282"
       class="st1"
       width="512"
       height="512"
       id="rect8"
       style="display:inline;fill:none;stroke:#000000;stroke-width:0.1;stroke-miterlimit:10" /><line
       class="st1"
       x1="-98"
       y1="778"
       x2="414"
       y2="778"
       id="line10"
       style="display:inline;fill:none;stroke:#000000;stroke-width:0.1;stroke-miterlimit:10" /><line
       class="st1"
       x1="-98"
       y1="762"
       x2="414"
       y2="762"
       id="line12"
       style="display:inline;fill:none;stroke:#000000;stroke-width:0.1;stroke-miterlimit:10" /><line
       class="st1"
       x1="-98"
       y1="746"
       x2="414"
       y2="746"
       id="line14"
       style="display:inline;fill:none;stroke:#000000;stroke-width:0.1;stroke-miterlimit:10" /><line
       class="st1"
       x1="-98"
       y1="730"
       x2="414"
       y2="730"
       id="line16"
       style="display:inline;fill:none;stroke:#000000;stroke-width:0.1;stroke-miterlimit:10" /><line
       class="st1"
       x1="-98"
       y1="714"
       x2="414"
       y2="714"
       id="line18"
       style="display:inline;fill:none;stroke:#000000;stroke-width:0.1;stroke-miterlimit:10" /><line
       class="st1"
       x1="-98"
       y1="698"
       x2="414"
       y2="698"
       id="line20"
       style="display:inline;fill:none;stroke:#000000;stroke-width:0.1;stroke-miterlimit:10" /><line
       class="st1"
       x1="-98"
       y1="682"
       x2="414"
       y2="682"
       id="line22"
       style="display:inline;fill:none;stroke:#000000;stroke-width:0.1;stroke-miterlimit:10" /><line
       class="st1"
       x1="-98"
       y1="666"
       x2="414"
       y2="666"
       id="line24"
       style="display:inline;fill:none;stroke:#000000;stroke-width:0.1;stroke-miterlimit:10" /><line
       class="st1"
       x1="-98"
       y1="650"
       x2="414"
       y2="650"
       id="line26"
       style="display:inline;fill:none;stroke:#000000;stroke-width:0.1;stroke-miterlimit:10" /><line
       class="st1"
       x1="-98"
       y1="634"
       x2="414"
       y2="634"
       id="line28"
       style="display:inline;fill:none;stroke:#000000;stroke-width:0.1;stroke-miterlimit:10" /><line
       class="st1"
       x1="-98"
       y1="618"
       x2="414"
       y2="618"
       id="line30"
       style="display:inline;fill:none;stroke:#000000;stroke-width:0.1;stroke-miterlimit:10" /><line
       class="st1"
       x1="-98"
       y1="602"
       x2="414"
       y2="602"
       id="line32"
       style="display:inline;fill:none;stroke:#000000;stroke-width:0.1;stroke-miterlimit:10" /><line
       class="st1"
       x1="-98"
       y1="586"
       x2="414"
       y2="586"
       id="line34"
       style="display:inline;fill:none;stroke:#000000;stroke-width:0.1;stroke-miterlimit:10" /><line
       class="st1"
       x1="-98"
       y1="570"
       x2="414"
       y2="570"
       id="line36"
       style="display:inline;fill:none;stroke:#000000;stroke-width:0.1;stroke-miterlimit:10" /><line
       class="st1"
       x1="-98"
       y1="554"
       x2="414"
       y2="554"
       id="line38"
       style="display:inline;fill:none;stroke:#000000;stroke-width:0.1;stroke-miterlimit:10" /><line
       class="st1"
       x1="-98"
       y1="538"
       x2="414"
       y2="538"
       id="line40"
       style="display:inline;fill:none;stroke:#000000;stroke-width:0.1;stroke-miterlimit:10" /><line
       class="st1"
       x1="-98"
       y1="522"
       x2="414"
       y2="522"
       id="line42"
       style="display:inline;fill:none;stroke:#000000;stroke-width:0.1;stroke-miterlimit:10" /><line
       class="st1"
       x1="-98"
       y1="506"
       x2="414"
       y2="506"
       id="line44"
       style="display:inline;fill:none;stroke:#000000;stroke-width:0.1;stroke-miterlimit:10" /><line
       class="st1"
       x1="-98"
       y1="490"
       x2="414"
       y2="490"
       id="line46"
       style="display:inline;fill:none;stroke:#000000;stroke-width:0.1;stroke-miterlimit:10" /><line
       class="st1"
       x1="-98"
       y1="474"
       x2="414"
       y2="474"
       id="line48"
       style="display:inline;fill:none;stroke:#000000;stroke-width:0.1;stroke-miterlimit:10" /><line
       class="st1"
       x1="-98"
       y1="458"
       x2="414"
       y2="458"
       id="line50"
       style="display:inline;fill:none;stroke:#000000;stroke-width:0.1;stroke-miterlimit:10" /><line
       class="st1"
       x1="-98"
       y1="442"
       x2="414"
       y2="442"
       id="line52"
       style="display:inline;fill:none;stroke:#000000;stroke-width:0.1;stroke-miterlimit:10" /><line
       class="st1"
       x1="-98"
       y1="426"
       x2="414"
       y2="426"
       id="line54"
       style="display:inline;fill:none;stroke:#000000;stroke-width:0.1;stroke-miterlimit:10" /><line
       class="st1"
       x1="-98"
       y1="410"
       x2="414"
       y2="410"
       id="line56"
       style="display:inline;fill:none;stroke:#000000;stroke-width:0.1;stroke-miterlimit:10" /><line
       class="st1"
       x1="-98"
       y1="394"
       x2="414"
       y2="394"
       id="line58"
       style="display:inline;fill:none;stroke:#000000;stroke-width:0.1;stroke-miterlimit:10" /><line
       class="st1"
       x1="-98"
       y1="378"
       x2="414"
       y2="378"
       id="line60"
       style="display:inline;fill:none;stroke:#000000;stroke-width:0.1;stroke-miterlimit:10" /><line
       class="st1"
       x1="-98"
       y1="362"
       x2="414"
       y2="362"
       id="line62"
       style="display:inline;fill:none;stroke:#000000;stroke-width:0.1;stroke-miterlimit:10" /><line
       class="st1"
       x1="-98"
       y1="346"
       x2="414"
       y2="346"
       id="line64"
       style="display:inline;fill:none;stroke:#000000;stroke-width:0.1;stroke-miterlimit:10" /><line
       class="st1"
       x1="-98"
       y1="330"
       x2="414"
       y2="330"
       id="line66"
       style="display:inline;fill:none;stroke:#000000;stroke-width:0.1;stroke-miterlimit:10" /><line
       class="st1"
       x1="-98"
       y1="314"
       x2="414"
       y2="314"
       id="line68"
       style="display:inline;fill:none;stroke:#000000;stroke-width:0.1;stroke-miterlimit:10" /><line
       class="st1"
       x1="-98"
       y1="298"
       x2="414"
       y2="298"
       id="line70"
       style="display:inline;fill:none;stroke:#000000;stroke-width:0.1;stroke-miterlimit:10" /><line
       class="st1"
       x1="398"
       y1="282"
       x2="398"
       y2="794"
       id="line72"
       style="display:inline;fill:none;stroke:#000000;stroke-width:0.1;stroke-miterlimit:10" /><line
       class="st1"
       x1="382"
       y1="282"
       x2="382"
       y2="794"
       id="line74"
       style="display:inline;fill:none;stroke:#000000;stroke-width:0.1;stroke-miterlimit:10" /><line
       class="st1"
       x1="366"
       y1="282"
       x2="366"
       y2="794"
       id="line76"
       style="display:inline;fill:none;stroke:#000000;stroke-width:0.1;stroke-miterlimit:10" /><line
       class="st1"
       x1="350"
       y1="282"
       x2="350"
       y2="794"
       id="line78"
       style="display:inline;fill:none;stroke:#000000;stroke-width:0.1;stroke-miterlimit:10" /><line
       class="st1"
       x1="334"
       y1="282"
       x2="334"
       y2="794"
       id="line80"
       style="display:inline;fill:none;stroke:#000000;stroke-width:0.1;stroke-miterlimit:10" /><line
       class="st1"
       x1="318"
       y1="282"
       x2="318"
       y2="794"
       id="line82"
       style="display:inline;fill:none;stroke:#000000;stroke-width:0.1;stroke-miterlimit:10" /><line
       class="st1"
       x1="302"
       y1="282"
       x2="302"
       y2="794"
       id="line84"
       style="display:inline;fill:none;stroke:#000000;stroke-width:0.1;stroke-miterlimit:10" /><line
       class="st1"
       x1="286"
       y1="282"
       x2="286"
       y2="794"
       id="line86"
       style="display:inline;fill:none;stroke:#000000;stroke-width:0.1;stroke-miterlimit:10" /><line
       class="st1"
       x1="270"
       y1="282"
       x2="270"
       y2="794"
       id="line88"
       style="display:inline;fill:none;stroke:#000000;stroke-width:0.1;stroke-miterlimit:10" /><line
       class="st1"
       x1="254"
       y1="282"
       x2="254"
       y2="794"
       id="line90"
       style="display:inline;fill:none;stroke:#000000;stroke-width:0.1;stroke-miterlimit:10" /><line
       class="st1"
       x1="238"
       y1="282"
       x2="238"
       y2="794"
       id="line92"
       style="display:inline;fill:none;stroke:#000000;stroke-width:0.1;stroke-miterlimit:10" /><line
       class="st1"
       x1="222"
       y1="282"
       x2="222"
       y2="794"
       id="line94"
       style="display:inline;fill:none;stroke:#000000;stroke-width:0.1;stroke-miterlimit:10" /><line
       class="st1"
       x1="206"
       y1="282"
       x2="206"
       y2="794"
       id="line96"
       style="display:inline;fill:none;stroke:#000000;stroke-width:0.1;stroke-miterlimit:10" /><line
       class="st1"
       x1="190"
       y1="282"
       x2="190"
       y2="794"
       id="line98"
       style="display:inline;fill:none;stroke:#000000;stroke-width:0.1;stroke-miterlimit:10" /><line
       class="st1"
       x1="174"
       y1="282"
       x2="174"
       y2="794"
       id="line100"
       style="display:inline;fill:none;stroke:#000000;stroke-width:0.1;stroke-miterlimit:10" /><line
       class="st1"
       x1="158"
       y1="282"
       x2="158"
       y2="794"
       id="line102"
       style="display:inline;fill:none;stroke:#000000;stroke-width:0.1;stroke-miterlimit:10" /><line
       class="st1"
       x1="142"
       y1="282"
       x2="142"
       y2="794"
       id="line104"
       style="display:inline;fill:none;stroke:#000000;stroke-width:0.1;stroke-miterlimit:10" /><line
       class="st1"
       x1="126"
       y1="282"
       x2="126"
       y2="794"
       id="line106"
       style="display:inline;fill:none;stroke:#000000;stroke-width:0.1;stroke-miterlimit:10" /><line
       class="st1"
       x1="110"
       y1="282"
       x2="110"
       y2="794"
       id="line108"
       style="display:inline;fill:none;stroke:#000000;stroke-width:0.1;stroke-miterlimit:10" /><line
       class="st1"
       x1="94"
       y1="282"
       x2="94"
       y2="794"
       id="line110"
       style="display:inline;fill:none;stroke:#000000;stroke-width:0.1;stroke-miterlimit:10" /><line
       class="st1"
       x1="78"
       y1="282"
       x2="78"
       y2="794"
       id="line112"
       style="display:inline;fill:none;stroke:#000000;stroke-width:0.1;stroke-miterlimit:10" /><line
       class="st1"
       x1="62"
       y1="282"
       x2="62"
       y2="794"
       id="line114"
       style="display:inline;fill:none;stroke:#000000;stroke-width:0.1;stroke-miterlimit:10" /><line
       class="st1"
       x1="46"
       y1="282"
       x2="46"
       y2="794"
       id="line116"
       style="display:inline;fill:none;stroke:#000000;stroke-width:0.1;stroke-miterlimit:10" /><line
       class="st1"
       x1="30"
       y1="282"
       x2="30"
       y2="794"
       id="line118"
       style="display:inline;fill:none;stroke:#000000;stroke-width:0.1;stroke-miterlimit:10" /><line
       class="st1"
       x1="14"
       y1="282"
       x2="14"
       y2="794"
       id="line120"
       style="display:inline;fill:none;stroke:#000000;stroke-width:0.1;stroke-miterlimit:10" /><line
       class="st1"
       x1="-2"
       y1="282"
       x2="-2"
       y2="794"
       id="line122"
       style="display:inline;fill:none;stroke:#000000;stroke-width:0.1;stroke-miterlimit:10" /><line
       class="st1"
       x1="-18"
       y1="282"
       x2="-18"
       y2="794"
       id="line124"
       style="display:inline;fill:none;stroke:#000000;stroke-width:0.1;stroke-miterlimit:10" /><line
       class="st1"
       x1="-34"
       y1="282"
       x2="-34"
       y2="794"
       id="line126"
       style="display:inline;fill:none;stroke:#000000;stroke-width:0.1;stroke-miterlimit:10" /><line
       class="st1"
       x1="-50"
       y1="282"
       x2="-50"
       y2="794"
       id="line128"
       style="display:inline;fill:none;stroke:#000000;stroke-width:0.1;stroke-miterlimit:10" /><line
       class="st1"
       x1="-66"
       y1="282"
       x2="-66"
       y2="794"
       id="line130"
       style="display:inline;fill:none;stroke:#000000;stroke-width:0.1;stroke-miterlimit:10" /><line
       class="st1"
       x1="-82"
       y1="282"
       x2="-82"
       y2="794"
       id="line132"
       style="display:inline;fill:none;stroke:#000000;stroke-width:0.1;stroke-miterlimit:10" /></g><g
     id="g134"
     transform="translate(0,10)"><path
       d="M 256,506 C 189.2,506 126.4,480 79.2,432.8 32,385.6 6,322.8 6,256 6,189.2 32,126.4 79.2,79.2 126.4,32 189.2,6 256,6 322.8,6 385.6,32 432.8,79.2 480,126.4 506,189.2 506,256 506,322.8 480,385.6 432.8,432.8 385.6,480 322.8,506 256,506 Z M 256,22 C 127,22 22,127 22,256 22,385 127,490 256,490 385,490 490,385 490,256 490,127 385,22 256,22 Z"
       id="path136"
       inkscape:connector-curvature="0" /></g><g
     id="g138"
     transform="translate(0,10)"><path
       d="m 131.4,327.4 c -6.8,-0.7 -12,-6.5 -12,-13.4 l 0,-157.1 -13.4,0 0,179.6 c 22.2,0.6 44.4,3 73.5,8.8 27.7,5.5 56.8,11.9 76.8,19.4 0,0 -46.9,-20.4 -76.1,-28.2 -17.7,-4.8 -34.2,-7.5 -48.8,-9.1 z"
       id="path140"
       inkscape:connector-curvature="0" /><path
       d="m 391.7,156.9 0,157.5 c 0,6.7 -5,12.4 -11.6,13.3 -13.9,1.8 -29.2,4.6 -45.5,8.9 -30,7.8 -58.7,18.2 -78.2,28.2 0,0 49.8,-14.9 79.5,-20.6 27.5,-5.2 49.1,-7.3 70.1,-7.7 l 0,-179.6 -14.3,0 z"
       id="path142"
       inkscape:connector-curvature="0" /><path
       d="m 252,356.1 c 0,-57.7 0,-127.1 0.1,-184.8 -17.6,-6.1 -38.1,-11.9 -61.3,-16.4 -22.6,-4.4 -44,-6.6 -62.1,-7.7 0,57.7 0,115.4 0,173.2 19.4,1.8 43.8,5.8 70,13.9 20.7,6.6 38.5,14.3 53.3,21.8 z"
       id="path144"
       inkscape:connector-curvature="0" /><path
       d="m 382.6,320.4 c 0,-57.7 0,-115.4 0,-173.2 -18.2,1 -39.6,3.3 -62.1,7.7 -23.2,4.5 -43.7,10.3 -61.3,16.4 0,57.7 0,127.2 0,184.8 17.4,-7.8 38,-15.8 61.5,-22.6 22.3,-6.3 43.7,-10.5 61.9,-13.1 z"
       id="path146"
       inkscape:connector-curvature="0" /></g></svg>